<svg width="1011" height="190" viewBox="0 0 1011 190" fill="none" xmlns="http://www.w3.org/2000/svg">
<path d="M0 142C0 130.954 8.95431 122 20 122H45V139.5C45 151.926 34.9264 162 22.5 162H20C8.9543 162 0 153.046 0 142V142Z" fill="url(#paint0_linear_4_47)"/>
<path d="M56 142C56 130.954 64.9543 122 76 122H101V139.5C101 151.926 90.9264 162 78.5 162H76C64.9543 162 56 153.046 56 142V142Z" fill="url(#paint1_linear_4_47)"/>
<path d="M61 95.5C61 84.7304 69.7304 76 80.5 76H106V92.5C106 104.926 95.9264 115 83.5 115H80.5C69.7304 115 61 106.27 61 95.5V95.5Z" fill="url(#paint2_linear_4_47)"/>
<path d="M112 122H137C148.046 122 157 130.954 157 142V142C157 153.046 148.046 162 137 162H134.5C122.074 162 112 151.926 112 139.5V122Z" fill="url(#paint3_linear_4_47)"/>
<path d="M117 76H142.5C153.27 76 162 84.7304 162 95.5V95.5C162 106.27 153.27 115 142.5 115H139.5C127.074 115 117 104.926 117 92.5V76Z" fill="url(#paint4_linear_4_47)"/>
<path d="M117 50.5C117 38.0736 127.074 28 139.5 28H142C153.046 28 162 36.9543 162 48V48C162 59.0457 153.046 68 142 68H117V50.5Z" fill="url(#paint5_linear_4_47)"/>
<path d="M199.273 152V130.886L276.844 53.315L297.346 60.047H199.885V37.25H308.515V58.211L230.944 135.935L213.349 129.05H308.974V152H199.273ZM385.971 154.448C372.507 154.448 360.675 151.949 350.475 146.951C340.377 141.953 332.523 134.966 326.913 125.99C321.303 117.014 318.498 106.559 318.498 94.625C318.498 82.691 321.303 72.236 326.913 63.26C332.523 54.284 340.377 47.297 350.475 42.299C360.675 37.301 372.507 34.802 385.971 34.802C399.435 34.802 411.216 37.301 421.314 42.299C431.514 47.297 439.419 54.284 445.029 63.26C450.741 72.236 453.597 82.691 453.597 94.625C453.597 106.559 450.741 117.014 445.029 125.99C439.419 134.966 431.514 141.953 421.314 146.951C411.216 151.949 399.435 154.448 385.971 154.448ZM385.971 128.591C393.927 128.591 400.761 127.265 406.473 124.613C412.185 121.859 416.571 117.932 419.631 112.832C422.793 107.732 424.374 101.663 424.374 94.625C424.374 87.587 422.793 81.518 419.631 76.418C416.571 71.318 412.185 67.442 406.473 64.79C400.761 62.036 393.927 60.659 385.971 60.659C378.117 60.659 371.334 62.036 365.622 64.79C359.91 67.442 355.473 71.318 352.311 76.418C349.149 81.518 347.568 87.587 347.568 94.625C347.568 101.663 349.149 107.732 352.311 112.832C355.473 117.932 359.91 121.859 365.622 124.613C371.334 127.265 378.117 128.591 385.971 128.591ZM470.724 37.25H499.641V152H470.724V37.25ZM628.308 132.263L618.975 133.946V37.25H646.974V152H610.56L540.639 55.304L549.972 53.621V152H521.973V37.25H559.458L628.308 132.263ZM705.556 49.949H734.473V152H705.556V49.949ZM660.88 37.25H779.149V62.801H660.88V37.25ZM821.927 37.25V139.148L808.922 126.449H894.908V152H793.01V37.25H821.927ZM926.722 152V96.461H955.639V152H926.722ZM872.866 37.25H904.843L947.683 91.718H934.372L977.212 37.25H1009.19L950.437 111.914L931.771 112.22L872.866 37.25Z" fill="white"/>
<defs>
<linearGradient id="paint0_linear_4_47" x1="0" y1="142" x2="45" y2="142" gradientUnits="userSpaceOnUse">
<stop stop-color="#464EFF"/>
<stop offset="1" stop-color="#9B35FF"/>
</linearGradient>
<linearGradient id="paint1_linear_4_47" x1="56" y1="142" x2="101" y2="142" gradientUnits="userSpaceOnUse">
<stop stop-color="#464EFF"/>
<stop offset="1" stop-color="#9B35FF"/>
</linearGradient>
<linearGradient id="paint2_linear_4_47" x1="61" y1="95.5" x2="106" y2="95.5" gradientUnits="userSpaceOnUse">
<stop stop-color="#464EFF"/>
<stop offset="1" stop-color="#9B35FF"/>
</linearGradient>
<linearGradient id="paint3_linear_4_47" x1="112" y1="142" x2="157" y2="142" gradientUnits="userSpaceOnUse">
<stop stop-color="#464EFF"/>
<stop offset="1" stop-color="#9B35FF"/>
</linearGradient>
<linearGradient id="paint4_linear_4_47" x1="117" y1="95.5" x2="162" y2="95.5" gradientUnits="userSpaceOnUse">
<stop stop-color="#464EFF"/>
<stop offset="1" stop-color="#9B35FF"/>
</linearGradient>
<linearGradient id="paint5_linear_4_47" x1="117" y1="48" x2="162" y2="48" gradientUnits="userSpaceOnUse">
<stop stop-color="#464EFF"/>
<stop offset="1" stop-color="#9B35FF"/>
</linearGradient>
</defs>
</svg>
