<svg width="944" height="204" viewBox="0 0 944 204" fill="none" xmlns="http://www.w3.org/2000/svg">
<path d="M360.26 14.5V97H338.59V22.64L343.43 23.19L311.53 97H288.43L256.42 23.41L261.37 22.86V97H239.7V14.5H274.9L304.49 85.34H295.69L325.06 14.5H360.26ZM393.956 81.16V62.79H450.826V81.16H393.956ZM437.846 14.5L475.356 97H451.046L419.586 24.18H426.186L394.616 97H370.306L407.816 14.5H437.846ZM499.432 97V56.85H522.312V97H499.432ZM460.712 14.5H486.012L515.932 52.56H505.702L535.512 14.5H560.812L518.132 68.73L503.502 68.95L460.712 14.5ZM571.466 97V14.5H594.126V78.85L588.076 74.12L634.826 14.5H658.916L592.036 97H571.466ZM610.846 57.62L627.566 43.76L660.016 97H634.166L610.846 57.62ZM709.22 98.76C699.467 98.76 690.887 96.9633 683.48 93.37C676.147 89.7767 670.427 84.7533 666.32 78.3C662.287 71.8467 660.27 64.33 660.27 55.75C660.27 47.17 662.287 39.6533 666.32 33.2C670.427 26.7467 676.147 21.7233 683.48 18.13C690.887 14.5367 699.467 12.74 709.22 12.74C719.047 12.74 727.627 14.5367 734.96 18.13C742.294 21.7233 748.014 26.7467 752.12 33.2C756.227 39.6533 758.28 47.17 758.28 55.75C758.28 64.33 756.227 71.8467 752.12 78.3C748.014 84.7533 742.294 89.7767 734.96 93.37C727.627 96.9633 719.047 98.76 709.22 98.76ZM709.22 78.41C714.574 78.41 719.194 77.4933 723.08 75.66C726.967 73.8267 729.937 71.2233 731.99 67.85C734.117 64.4767 735.18 60.4433 735.18 55.75C735.18 51.0567 734.117 47.0233 731.99 43.65C729.937 40.2767 726.967 37.6733 723.08 35.84C719.194 34.0067 714.574 33.09 709.22 33.09C703.94 33.09 699.357 34.0067 695.47 35.84C691.584 37.6733 688.577 40.2767 686.45 43.65C684.324 47.0233 683.26 51.0567 683.26 55.75C683.26 60.4433 684.324 64.4767 686.45 67.85C688.577 71.2233 691.584 73.8267 695.47 75.66C699.357 77.4933 703.94 78.41 709.22 78.41ZM794.753 24.51H817.633V97H794.753V24.51ZM763.293 14.5H849.093V34.74H763.293V14.5ZM886.973 24.51H909.853V97H886.973V24.51ZM855.513 14.5H941.313V34.74H855.513V14.5Z" fill="white"/>
<path d="M324.18 154.25C323.96 159.237 322.933 164.003 321.1 168.55C319.34 173.023 316.737 177.02 313.29 180.54C309.917 184.06 305.663 186.81 300.53 188.79C295.47 190.77 289.567 191.76 282.82 191.76C276.367 191.76 270.317 190.843 264.67 189.01C259.023 187.103 254.037 184.317 249.71 180.65C245.457 176.983 242.12 172.473 239.7 167.12C237.353 161.767 236.18 155.643 236.18 148.75C236.18 141.857 237.39 135.733 239.81 130.38C242.23 125.027 245.603 120.517 249.93 116.85C254.33 113.183 259.39 110.433 265.11 108.6C270.903 106.693 277.21 105.74 284.03 105.74C293.123 105.74 300.97 107.133 307.57 109.92C314.17 112.707 319.487 116.52 323.52 121.36C327.553 126.2 330.157 131.81 331.33 138.19H308.34C307.607 135.403 306.103 133.02 303.83 131.04C301.63 128.987 298.843 127.447 295.47 126.42C292.17 125.32 288.393 124.77 284.14 124.77C279.007 124.77 274.57 125.687 270.83 127.52C267.09 129.28 264.193 131.957 262.14 135.55C260.087 139.07 259.06 143.47 259.06 148.75C259.06 154.103 260.16 158.613 262.36 162.28C264.56 165.947 267.677 168.697 271.71 170.53C275.817 172.363 280.62 173.28 286.12 173.28C291.473 173.28 296.203 172.547 300.31 171.08C304.417 169.54 307.68 167.303 310.1 164.37C312.593 161.437 314.023 157.917 314.39 153.81L324.18 154.25ZM288.32 163.38V147.32H332.1V190H315.93L312.74 157.33L317.03 163.38H288.32ZM363.655 143.58H393.685C397.352 143.58 400.212 142.737 402.265 141.05C404.319 139.363 405.345 137.017 405.345 134.01C405.345 130.93 404.319 128.583 402.265 126.97C400.212 125.283 397.352 124.44 393.685 124.44H360.465L370.695 113.55V190H347.925V107.5H396.875C403.182 107.5 408.682 108.637 413.375 110.91C418.069 113.11 421.735 116.19 424.375 120.15C427.015 124.037 428.335 128.657 428.335 134.01C428.335 139.217 427.015 143.8 424.375 147.76C421.735 151.72 418.069 154.8 413.375 157C408.682 159.2 403.182 160.3 396.875 160.3H363.655V143.58ZM375.975 151.39H401.605L431.195 190H404.795L375.975 151.39ZM488.043 191.76C478.29 191.76 469.71 189.963 462.303 186.37C454.97 182.777 449.25 177.753 445.143 171.3C441.11 164.847 439.093 157.33 439.093 148.75C439.093 140.17 441.11 132.653 445.143 126.2C449.25 119.747 454.97 114.723 462.303 111.13C469.71 107.537 478.29 105.74 488.043 105.74C497.87 105.74 506.45 107.537 513.783 111.13C521.116 114.723 526.836 119.747 530.943 126.2C535.05 132.653 537.103 140.17 537.103 148.75C537.103 157.33 535.05 164.847 530.943 171.3C526.836 177.753 521.116 182.777 513.783 186.37C506.45 189.963 497.87 191.76 488.043 191.76ZM488.043 171.41C493.396 171.41 498.016 170.493 501.903 168.66C505.79 166.827 508.76 164.223 510.813 160.85C512.94 157.477 514.003 153.443 514.003 148.75C514.003 144.057 512.94 140.023 510.813 136.65C508.76 133.277 505.79 130.673 501.903 128.84C498.016 127.007 493.396 126.09 488.043 126.09C482.763 126.09 478.18 127.007 474.293 128.84C470.406 130.673 467.4 133.277 465.273 136.65C463.146 140.023 462.083 144.057 462.083 148.75C462.083 153.443 463.146 157.477 465.273 160.85C467.4 164.223 470.406 166.827 474.293 168.66C478.18 170.493 482.763 171.41 488.043 171.41ZM572.726 153.15C572.726 156.89 573.423 160.153 574.816 162.94C576.283 165.653 578.409 167.743 581.196 169.21C584.056 170.677 587.539 171.41 591.646 171.41C595.826 171.41 599.309 170.677 602.096 169.21C604.883 167.743 606.973 165.653 608.366 162.94C609.759 160.153 610.456 156.89 610.456 153.15V107.5H633.336V154.25C633.336 161.803 631.576 168.403 628.056 174.05C624.609 179.623 619.769 183.987 613.536 187.14C607.303 190.22 600.006 191.76 591.646 191.76C583.359 191.76 576.063 190.22 569.756 187.14C563.523 183.987 558.646 179.623 555.126 174.05C551.679 168.403 549.956 161.803 549.956 154.25V107.5H572.726V153.15ZM696.138 107.5C703.031 107.5 708.971 108.673 713.958 111.02C719.018 113.367 722.868 116.703 725.508 121.03C728.148 125.283 729.468 130.27 729.468 135.99C729.468 141.637 728.148 146.623 725.508 150.95C722.868 155.203 719.018 158.503 713.958 160.85C708.971 163.197 703.031 164.37 696.138 164.37H660.388V146.11H694.708C698.375 146.11 701.235 145.23 703.288 143.47C705.341 141.637 706.368 139.143 706.368 135.99C706.368 132.763 705.341 130.27 703.288 128.51C701.235 126.677 698.375 125.76 694.708 125.76H662.368L672.598 115.2V190H649.828V107.5H696.138Z" fill="white"/>
<path d="M205 204H0V0H205V204ZM66.9824 36L37.0254 65.9365H119.601L37 148.463V168.975H57.5283L57.5566 169L141.227 85.4062V168.975L169 141.219V36H66.9824Z" fill="#C5A859"/>
</svg>
